<?xml version="1.0" encoding="UTF-8"?>
<svg xmlns="http://www.w3.org/2000/svg" width="837" height="886" viewBox="206 167 837 886" role="img" aria-label="Orange crescent moon and quill blog icon">
  <path d="M 640.0 809.0 L 654.0 810.0 L 688.0 806.0 L 739.0 806.0 L 750.0 808.0 L 759.0 813.0 L 750.0 826.0 L 751.0 835.0 L 764.0 842.0 L 779.0 844.0 L 824.0 841.0 L 855.0 835.0 L 871.0 829.0 L 862.0 828.0 L 821.0 832.0 L 782.0 832.0 L 770.0 830.0 L 766.0 826.0 L 774.0 816.0 L 775.0 809.0 L 773.0 805.0 L 767.0 800.0 L 759.0 797.0 L 737.0 794.0 L 717.0 794.0 L 689.0 797.0 L 667.0 801.0 Z
M 911.0 757.0 L 906.0 761.0 L 905.0 765.0 L 908.0 771.0 L 914.0 773.0 L 920.0 769.0 L 921.0 763.0 L 917.0 758.0 Z
M 974.0 615.0 L 968.0 635.0 L 960.0 642.0 L 946.0 646.0 L 946.0 648.0 L 957.0 651.0 L 967.0 658.0 L 971.0 666.0 L 973.0 678.0 L 976.0 679.0 L 978.0 669.0 L 983.0 658.0 L 987.0 654.0 L 1004.0 647.0 L 994.0 644.0 L 983.0 637.0 L 979.0 629.0 L 977.0 618.0 Z
M 535.0 514.0 L 530.0 517.0 L 529.0 525.0 L 532.0 529.0 L 539.0 530.0 L 544.0 525.0 L 544.0 519.0 L 540.0 515.0 Z
M 629.0 333.0 L 627.0 334.0 L 623.0 353.0 L 617.0 365.0 L 603.0 375.0 L 585.0 380.0 L 586.0 383.0 L 601.0 386.0 L 611.0 391.0 L 618.0 398.0 L 622.0 406.0 L 628.0 428.0 L 630.0 426.0 L 635.0 404.0 L 639.0 397.0 L 653.0 387.0 L 671.0 382.0 L 669.0 379.0 L 647.0 372.0 L 640.0 366.0 L 634.0 355.0 Z
M 967.0 333.0 L 948.0 331.0 L 913.0 339.0 L 853.0 366.0 L 802.0 403.0 L 754.0 456.0 L 729.0 502.0 L 723.0 532.0 L 721.0 567.0 L 710.0 533.0 L 696.0 562.0 L 680.0 626.0 L 678.0 684.0 L 654.0 740.0 L 640.0 796.0 L 670.0 760.0 L 678.0 718.0 L 708.0 641.0 L 741.0 581.0 L 805.0 494.0 L 865.0 433.0 L 799.0 518.0 L 753.0 587.0 L 716.0 655.0 L 693.0 713.0 L 763.0 681.0 L 813.0 647.0 L 842.0 616.0 L 801.0 623.0 L 784.0 622.0 L 823.0 607.0 L 856.0 587.0 L 888.0 557.0 L 907.0 533.0 L 921.0 507.0 L 895.0 511.0 L 872.0 510.0 L 916.0 492.0 L 934.0 479.0 L 942.0 468.0 L 960.0 426.0 L 970.0 385.0 L 973.0 346.0 Z
M 797.0 263.0 L 793.0 266.0 L 792.0 273.0 L 796.0 278.0 L 801.0 279.0 L 807.0 274.0 L 807.0 268.0 L 804.0 264.0 Z
M 572.0 170.0 L 491.0 189.0 L 410.0 227.0 L 333.0 287.0 L 281.0 349.0 L 244.0 415.0 L 215.0 503.0 L 206.0 570.0 L 206.0 626.0 L 213.0 681.0 L 236.0 763.0 L 279.0 847.0 L 331.0 913.0 L 403.0 975.0 L 478.0 1017.0 L 561.0 1044.0 L 627.0 1053.0 L 732.0 1046.0 L 823.0 1018.0 L 912.0 966.0 L 985.0 896.0 L 1019.0 848.0 L 1043.0 801.0 L 985.0 848.0 L 931.0 875.0 L 849.0 895.0 L 764.0 895.0 L 676.0 874.0 L 612.0 844.0 L 547.0 797.0 L 489.0 733.0 L 443.0 648.0 L 421.0 562.0 L 420.0 470.0 L 440.0 387.0 L 480.0 311.0 L 534.0 250.0 L 603.0 202.0 L 689.0 172.0 L 644.0 167.0 Z
M 244.0 751.0 L 262.0 739.0 L 287.0 732.0 L 317.0 734.0 L 343.0 745.0 L 361.0 760.0 L 374.0 778.0 L 383.0 803.0 L 384.0 821.0 L 402.0 814.0 L 423.0 813.0 L 435.0 816.0 L 448.0 823.0 L 461.0 835.0 L 472.0 855.0 L 475.0 871.0 L 472.0 893.0 L 484.0 891.0 L 502.0 892.0 L 519.0 896.0 L 535.0 903.0 L 552.0 915.0 L 569.0 934.0 L 580.0 955.0 L 584.0 972.0 L 596.0 968.0 L 614.0 966.0 L 631.0 969.0 L 647.0 976.0 L 661.0 988.0 L 669.0 999.0 L 675.0 1013.0 L 676.0 1021.0 L 674.0 1021.0 L 666.0 1008.0 L 648.0 992.0 L 632.0 985.0 L 623.0 983.0 L 603.0 983.0 L 579.0 992.0 L 567.0 972.0 L 552.0 957.0 L 531.0 945.0 L 516.0 941.0 L 493.0 940.0 L 474.0 944.0 L 452.0 955.0 L 441.0 964.0 L 430.0 977.0 L 398.0 956.0 L 365.0 929.0 L 339.0 904.0 L 316.0 878.0 L 298.0 854.0 L 271.0 811.0 L 255.0 779.0 Z" fill="#ff8200" fill-rule="evenodd"/>
</svg>
